<svg xmlns="http://www.w3.org/2000/svg" viewBox="0 0 2048 3072"><g stroke-width="0"><path d="M1033.1 890.1c-3.5 1.4-8.2 5-7.7 5.8.3.4-.8 1.8-2.4 2.9-3.5 2.6-12.4 3.1-13.3.8-.3-.8-2.7-1.8-5.4-2.2-2.6-.3-5.3-1-5.8-1.5-.6-.4-1.7-.4-2.5.1-.8.6-2.4 1-3.5 1-1.4 0-2.5 1-3.2 3-.6 1.7-1.1 3.2-1 3.4s-.7 1.3-1.7 2.5c-1.3 1.4-3.1 2.1-5.6 2.1-2 0-6.3.9-9.6 2.1-3.8 1.3-9 2.2-14.4 2.3-8.2.3-13.5 1.8-17 4.8-2.3 2-10.7 15-11.5 17.8-.4 1.4-1.9 4-3.4 5.8-3 3.8-11 11.7-12 11.8-.3 0-3.1.8-6.1 1.6-3 .9-7.1 1.9-9.1 2.2-2.7.5-5.4 2.4-11 7.9-9.1 8.9-12.2 11.1-15.1 10.4-1.3-.3-3.2-.1-4.3.3-1.1.5-1.4.9-.6.9.8.1-.1 1.6-2.2 3.6s-3.7 4.3-3.7 5.1-1.6 4.3-3.5 7.8-3.5 7.2-3.5 8.3c0 1-.9 3.5-2 5.6-1.1 2-2 5.3-2 7.2 0 3.3-.3 3.6-7 7-3.8 1.9-7 3.9-7 4.3 0 .5-1.3 2.2-3 3.8-1.6 1.6-3 3.3-3 3.8 0 2.1-5.9 6.3-9.6 6.9-4.4.8-12.9 6.8-15 10.7-3.9 7.2-6.6 14.6-6.8 18.3-.1 2.2-.8 4.3-1.4 4.5-.7.2-1.2.8-1.2 1.3 0 .4.7.6 1.5.3 1.1-.5 1.5.1 1.5 2 0 2.1-.5 2.6-2.4 2.6-1.4 0-2.7-.4-3-.8-.2-.4-2.3-.9-4.5-1-3.5-.2-4.1 0-4.1 1.7 0 1.1.5 2.3 1 2.6.6.3 1 .2 1-.4 0-1.7 5.5-.5 5.8 1.4.5 2.1-1.8 4.6-2.5 2.7-.3-.6-.9-1.2-1.5-1.2s-.7.7-.4 1.6c.4.9.2 2.2-.4 2.9s-2.9 5.5-5.1 10.6c-4.3 10.1-6.4 22-5.4 31.8.4 3.9 0 5.7-1.6 8.5-1.5 2.6-2.2 5.8-2.5 11.4-.2 4.5-.1 7.2.5 6.4.5-.9 1.1 1.6 1.5 6.7.4 4.5 1.1 7.9 1.6 7.6s1.2 0 1.5.6c.4.6-.6 2.5-2.3 4.2-1.6 1.8-3.2 4.3-3.5 5.5-.7 2.9 1.2 14.4 2.3 13.7 1.2-.7 2 10.5.9 13.3-1.3 3.3-.2 15.7 1.6 19.2.8 1.4 3.9 5.4 6.9 9 5.7 6.7 6.4 8.7 2.9 8.2-1.1-.2-2.3.4-2.6 1.3-.4.8-1.7 1.5-3 1.5-2.6 0-6.1 3.2-5 4.5.5.4.3.5-.4.1-1.3-.7-5.7 4.5-6.8 8.3-.4 1.3-.3 3.3.3 4.5 1.9 3.9 2.5 6.1 2.3 7.6-.2 1.1.2 1.1 1.8-.4 2.1-1.9 2.1-1.9 2.3.5 0 1.3.1 3 0 3.8 0 .8.6 2 1.4 2.8 1.8 1.8 1.8 3.7 0 2.6-.7-.4-2.7-2-4.5-3.5-2.7-2.3-3-3-2.1-5.2 1.3-3.6-.6-3.3-2.5.4-1.7 3.3-2 6.6-.5 7.5.6.3 1-.3 1-1.5s.5-1.8 1-1.5c.6.4.7 1.2.3 1.8-.4.8-.1.7.9-.1 1.4-1.1 1.7-1 2 1 .2 1.7 1.2 2.4 4.3 3 2.2.5 4.4 1.3 4.9 1.8.6.6 1.8 1 2.7 1s1.9.7 2.2 1.4q.6 1.5-.9.9c-.7-.3-1.4 0-1.4.5 0 1.4 3.3 2.4 5.4 1.6 1.1-.4 1.6-.1 1.6 1.1s.5 1.5 1.8 1.1c1.5-.5 1.4-.4-.2.9-1 .8-2.3 1.2-2.7.9-.5-.3-.2 1.3.6 3.6.8 2.2 1.2 4 .8 4-.3 0 0 .7.8 1.6 1 1.3 1 1.7-.2 2.5-1.1.7-1.1.9.4.9.9 0 1.7.3 1.7.7-.1 1.9-2.9 4.3-4.9 4.3-1.9 0-2 .3-1.1 2 1.9 3.5 8.1 3.8 11.4.5 1.1-1.2 2.1-1.2 4.6-.3 2.7.9 3 1.2 1.6 2-1.8 1-2.2 3.9-.4 3.5.7-.1 1.3 1.2 1.4 3.3.8 9.7 1.4 13.2 2.9 14.6.8.9 1.3 2 1 2.5-.4.5-.2.9.4.9 1.1 0 4.6 7.1 6 12.5.6 2.2 3.1 12.5 5.6 22.9 5 20.8 10.9 37.2 16.5 45.6 2.1 3.2 6.4 7.6 10.4 10.6 3.7 2.8 7.1 5.6 7.5 6.3.5.7.6 5.8.4 11.3-.5 10.6.7 17.1 4.8 25.1 1 2.2 1.9 4.4 1.9 5 0 .7 1.4 3.2 3 5.7s3 5.3 3 6.3.5 1.5 1 1.2c.6-.3 1 .5 1 1.9 0 1.3.4 2.6 1 2.8.5.2 1.4 1.8 1.9 3.5 1.2 4 1 4.2-10.3 10.7-4.8 2.7-12.3 8.3-16.7 12.5-7.7 7.1-11.2 11.6-45 57.2-5.9 7.9-16 20.4-22.5 27.8-13.7 15.4-12.9 14.9-45.9 28.6-11.5 4.8-29.5 12.8-40 17.7-10.4 5-24.4 11.4-31 14.3s-16.9 7.5-23 10.2c-6 2.8-13.5 6.1-16.5 7.4-29.6 12.8-88.6 45.5-105.7 58.6l-7.3 5.6V2304h1024v-495.8l-4.6-6.3c-6.3-8.7-32.5-34.5-45.9-45.2-27.1-21.6-40.9-29.4-99.5-55.7-10.7-4.9-28.7-13.3-40-18.8-11.3-5.4-27-12.7-35-16.2-40.7-17.5-53-26-66.3-45.5-2.3-3.3-8-11.2-12.7-17.5s-12.5-16.7-17.2-23.1c-4.8-6.3-11.6-14.7-15.2-18.6-6.7-7.2-7.8-9.3-5.1-9.3.9 0 1.5-.9 1.5-2.3 0-1.8.2-1.9 1-.7.5.8 1 1.3 1.1 1 0-.3.2-1.9.5-3.5 1-7 .6-6.4 8.1-13.7 1.8-1.7 3-3.4 2.8-3.8-.3-.4.1-1 .8-1.3.8-.3 2.1-2.9 3.1-5.9.9-2.9 3.2-7.1 5.2-9.3 1.9-2.2 4.4-5.9 5.6-8.3 1.2-2.3 2.4-4.2 2.8-4.2 2.6 0 11.4-26.8 13.5-41.1.4-2.8 1.2-4 3.3-4.8 3.4-1.4 11.5-9.2 15.3-14.7 13.2-19.2 22.8-53.3 22.9-81.2 0-8.2.8-11 2.4-8.3.5.8 4 .7 10.3-.4 4.4-.8 6.8-4.8 7.2-12.1.1-1.5 9-6.2 13.1-6.9 5.7-1 4.9-1.8-1.2-1.2-3.2.3-5.8.3-5.8-.1.1-1.6 5.2-5.4 8.7-6.4 5.1-1.4 9.2-4.4 9.9-7.4.3-1.3 1.1-2.4 1.7-2.4s.7-.3.4-.7c-.4-.3 0-1.5.9-2.5 1.4-1.4 1.6-3.1 1.1-8.8-.5-5.8-.3-7 .9-7 .9 0 1.2.5.8 1.2s.1.5 1.2-.5c1-1 2.7-2.3 3.7-3 2.4-1.6 1.3-4.3-2.4-6.3-1.6-.8-2.9-1.1-2.9-.7-.1 1.1-1.6-1.8-2.4-4.5-.5-1.6-.3-2.2.7-2.2 2.9 0 4.4-5.9 3.8-14.3l-.6-7.8 4.7-7.1c2.7-3.9 4.8-7.7 4.8-8.5s.5-1.1 1-.8c1.1.7 4-5.4 4.6-9.5.1-1.4-.4-5-1.3-8s-1.6-5.8-1.5-6.3c.1-.4-.3-.7-.8-.7-1.4 0-1.2-3.2.4-5.2 1.6-2.2 1.4-11.1-.3-13.2-1.7-2-2-12.3-.3-11.2.4.2.9-2.4 1-5.8.3-6.5-.6-8.4-3.9-8.3-1.4 0-1.5.6-.8 3.1 1.1 3.8 1.1 3.8 0 3.2-.5-.4-1.2 1.2-1.6 3.3-.5 3-1.1 3.9-2.5 3.8-2-.1-2-2.9-.1-8 .6-1.6.9-3.2.6-3.7s0-1 .6-1.2 1.3-2.2 1.5-4.3c.5-4.7 1-7.9 3-16.3.8-3.4 1.2-6.6.9-7.1s-.1-1.2.4-1.5c1.4-.9.8-10.1-.6-9.9-1 .2-4.6-9.1-4.8-12.1-.1-2 2.2-1.5 3.3.6 1 2.1 1.1 2 1.1-1.4.1-2-.4-4-1.1-4.4s-.8-.3-.4.4.3 1.2-.2 1.2c-.6 0-1.2-.7-1.6-1.5-.3-.8-1-1.5-1.6-1.5s-.8.5-.4 1.2.3.8-.4.4-1.2-3.1-1.2-5.9c0-2.9-.6-6.1-1.4-7.2-2.9-4.2-7.4-13.3-6.9-13.9.3-.3-2.8-3.9-7-7.9l-7.7-7.4.6-5.9c.5-4.7.2-7.2-1.6-11.9-1.2-3.3-2.4-7.1-2.6-8.5-1.3-6.4-8-17.7-14.1-23.8-5.9-6-6.3-6.7-6.3-10.9 0-6.7-4.3-15.8-8.5-17.7-1.8-.9-3.5-2.2-3.8-2.9-.3-.8-3.4-2.7-7-4.4-4-2-7.3-4.4-8.8-6.5-1.3-1.8-3.3-4.2-4.5-5.3s-3-3.4-4-5c-1-1.7-3.2-4.1-4.8-5.5-3.7-3.2-4.2-3.8-6.9-7.9-1.2-1.9-2.6-3.4-3.2-3.3-1.4.2-7.5-5.9-6.9-6.9.3-.5-.2-.6-1-.3-.9.3-1.6.1-1.6-.5s-.4-1.1-1-1.1c-1.8 0-7.8-4.7-13.1-10.2-6.1-6.4-14.8-10.5-33-15.8-5.7-1.7-11.3-3.5-12.4-4s-8.3-3-16-5.6c-9.8-3.2-15.3-4.5-18.5-4.3-10.8.5-20-.1-20-1.4 0-.5-.5-.7-1.2-.5-.7.3-4.5-.6-8.6-1.8-4-1.3-7.9-2.1-8.5-1.9-.7.2-5.4.6-10.4 1-9.2.6-9.3.5-9.4-1.7 0-1.3-.4-3.1-.8-4.1-.6-1.7-.9-1.6-3.4.5-1.5 1.3-2.7 3.3-2.7 4.5 0 2.2 0 2.2-2.6-.2-1.5-1.4-3.4-2.5-4.3-2.5-1.2 0-.9-.6.9-2 2.7-2.1 1.6-2.6-2.4-1-1.6.6-3.5.6-4.9.1-1.2-.5-4.5-1.9-7.4-3-5.5-2.2-11.2-2.6-15.2-1m13.6 4.7c1.7 1.2 3.3 1.9 3.7 1.5.3-.3.6-.1.6.7 0 .9-.9 1.1-3.2.5-1.8-.4-4.2-.8-5.3-1-1.1-.1-2.1-.4-2.2-.5-.2-.1-.7-.4-1.3-.5-.5-.1-1.1-.4-1.2-.5-.9-.8-5.8-.7-5.8.1 0 .5-.4.9-1 .9-1.9 0-1-2.1 1.3-3 3.8-1.5 11.1-.6 14.4 1.8m-43.2 5.2c1.3.6 1.5.9.5.9-.8 0-2.2-.4-3-.9-1.8-1.2-.2-1.2 2.5 0m41.5-.6c0 .2-1.1.6-2.5.8-1.4.3-2.5.1-2.5-.3 0-.5 1.1-.9 2.5-.9s2.5.2 2.5.4m53.4 4.7c.6.5-2.4.8-7.2.6-5.4-.1-8.3-.6-8.7-1.4-.3-1 1.4-1.1 7.3-.7 4.2.3 8.1 1 8.6 1.5m-103.9.8c-.3.6-1.1 1.1-1.7 1.1s-.6-.6.2-1.5c1.4-1.7 2.6-1.3 1.5.4m60.5-.9c0 .5.9 1 2 1s2 .4 2 .8c0 .7-2.8.8-9 .4-1.9-.2-2.2-.4-1-1.1.8-.6 1.7-.8 2.1-.5.4.2 1 0 1.4-.6.8-1.3 2.5-1.3 2.5 0m-47 1c0 .5-.7.7-1.5.4-.8-.4-1.5-.8-1.5-1s.7-.4 1.5-.4 1.5.4 1.5 1m75.8 1.5c.2.2-.8.2-2.2.1-1.4 0-2.6-.7-2.6-1.4 0-1 .5-1 2.3-.1 1.2.6 2.3 1.3 2.5 1.4m19.7.3c-.3.3-1.1 0-1.8-.7-.9-1-.8-1.1.6-.5 1 .3 1.5.9 1.2 1.2m38.3 2.9c3.8 1.4 4.1 1.8 2.4 2.4-2.1.8-14.2-2-14.2-3.3 0-1.4 7.3-.9 11.8.9m-10.3 2.3c-.3.5-1.1 1-1.6 1-.6 0-.7-.5-.4-1 .3-.6 1.1-1 1.6-1 .6 0 .7.4.4 1m22.8 2c.4.3-.6.5-2.3.2-1.7-.2-3.3-.8-3.6-1.4-.6-1 4.6 0 5.9 1.2m-195.8 5.5c1.4.3 2.5 1 2.5 1.5s-.6.7-1.4.4c-.7-.3-2.7.6-4.4 2.1-1.9 1.5-3.6 2.3-4.7 1.9-1-.4-2.8.2-4.6 1.5-2.4 1.8-3 1.9-3.5.7-.3-.8-.4-2.3-.2-3.2.4-2.3 8.7-6.4 11.6-5.8 1.2.2 3.3.6 4.7.9m228.5 6c.7.8.8 1.5.2 1.5-.5 0-1.5-.7-2.2-1.5s-.8-1.5-.2-1.5c.5 0 1.5.7 2.2 1.5m6.4.6c1.4 1.1 2.6 1.8 2.6 1.5s1.1.5 2.4 1.7 4.7 3.9 7.5 6 5.1 4.5 5.1 5.3c0 2.1-4.3 1.7-5.8-.6-.7-1.2-1.6-1.9-2-1.6-1.1.7-4.5-2.2-3.8-3.3.4-.5.1-1.3-.5-1.7-.8-.5-.9-.3-.4.6q.75 1.35-.3.6c-.7-.4-1.2-1.3-1.2-1.9 0-1.3-5.7-6.7-7-6.7-.5 0-1.2-.5-1.5-1-1.1-1.8 2.2-1.1 4.9 1.1m-253 3c-.8 1.4-2.4 1-2.4-.6 0-.9.6-1.2 1.5-.9.8.4 1.2 1 .9 1.5m253.1 1.7c-.3.3-1.1 0-1.8-.7-.9-1-.8-1.1.6-.5 1 .3 1.5.9 1.2 1.2m15.1.6c1 .8 1.7 1.7 1.4 1.9-.3.3-1.6-.3-3-1.3-2.9-2.2-1.4-2.7 1.6-.6m27.1 24.6c.3 1 .2 1.1-.4.4-.4-.6-1.5-1.4-2.3-1.7-1.1-.5-.9-.6.4-.4 1.1.1 2.1.9 2.3 1.7m14.2 13.9c1.7 2.1 3.1 4.4 3.1 5s.7 1.1 1.5 1.1 1.5.7 1.5 1.5.6 1.5 1.4 1.5c1.4 0 3.2 3.7 2.3 4.6-.3.3-1.5-.5-2.7-1.8-1.3-1.3-2-1.8-1.6-1.1.5.8-.1.9-2.3 0-1.5-.5-2.8-1.5-2.8-2.1 0-3.1-.4-4.7-1.2-4.2s-2.8-3.5-3.6-7.2c-.6-2.3 1.3-1.2 4.4 2.7m-350.3-.7c.5.8.2.9-1 .5-1-.4-2.4.1-3.7 1.4-1.1 1.1-2.3 1.8-2.6 1.5s-1.5-.1-2.5.5c-3.3 1.8-1.6-1.2 1.8-3.2 3.4-2.1 7-2.4 8-.7m-.9 3.4c-.3.3-1.2.4-1.9.1-.8-.3-.5-.6.6-.6 1.1-.1 1.7.2 1.3.5M869 981c0 .5-.2 1-.4 1-.3 0-.8-.5-1.1-1-.3-.6-.1-1 .4-1 .6 0 1.1.4 1.1 1m411.1 17.8c3.1 4.5 5.1 10 4.2 11.6-.4.6-.6 2-.4 3.1.2 1.7 0 1.6-1.8-.7-2.4-3-2.7-4.3-.8-3.2.7.4.9.3.4-.2s-1.4-.9-2-.9-1.4-1.4-1.8-3.1c-.3-1.8-1-4-1.4-5-1.2-2.8-1.2-6.2 0-5.8.5.3 2.2 2.1 3.6 4.2m-13.1-.6c0 .5-.4.8-1 .8-.5 0-1-1-1-2.3 0-1.8.2-1.9 1-.7.5.8 1 1.8 1 2.2m-408.8 6c-.9.9-1.2.7-1.2-1.2s.3-2.1 1.2-1.2.9 1.5 0 2.4m-5.2 8.4c0 .8-.5 1.2-1 .9-.6-.4-.8-1.1-.5-1.6.9-1.4 1.5-1.1 1.5.7m440.6 11.9c.9 1.4 2.1 2.2 2.7 1.8s.8 0 .4 1c-.4 1.1.3 2.7 1.9 4.4 1.3 1.4 2.7 3.8 3.1 5.2.3 1.4 1.4 3.9 2.4 5.6 2.5 4.5 5.1 13.1 4.7 15.7-.3 1.8-.7 1.3-1.7-2.2-1.7-5.9-5.3-14.4-6.3-14.8-.4-.2-.8-1.2-.8-2.2s-1.9-4.7-4.3-8.2c-5.8-8.5-6-8.8-4.8-8.8.6 0 1.8 1.1 2.7 2.5m-480.8 27.7c.1.8-.6 2.3-1.8 3.3-1.1 1-2 2.4-2 3.2 0 .7-.4 1.3-.9 1.3s-1.2.8-1.4 1.7c-.3 1-.5.3-.6-1.5-.1-2 .3-3.1.9-2.7.6.3.7-.1.4-1-.9-2.3 1.5-6.3 3.5-6.1.9.2 1.7.9 1.9 1.8m-.5 5.8c-.3 1.1-.7 2-.9 2s-.4-.9-.4-2 .4-2 .9-2 .7.9.4 2m498.3 6.9c-.1 3.4-.5 4.7-1.3 4.4-1.2-.5-1.1-2.1.4-7.6.7-2.8 1-2 .9 3.2m-509 20.4c.4.4-.5.7-1.9.7-1.5 0-2.7-.4-2.7-.8 0-1 3.6-.9 4.6.1m3.4-.3c0 .5-.2 1-.4 1-.3 0-.8-.5-1.1-1-.3-.6-.1-1 .4-1 .6 0 1.1.4 1.1 1m515.4 5.5c.9 1.3 1.6 3.1 1.6 3.9 0 .9.9 3 2.1 4.8l2.1 3.3-.7-3-.6-3 1.6 2.3c1 1.3 1.5 3.1 1.2 4.1-.2 1 0 2.6.5 3.6.8 1.4 1.2 1.5 1.9.4.6-1 .9-.6.9 1.3 0 1.4.3 3.3.6 4.2s.1 1.6-.5 1.6-1.1-.6-1.1-1.3-.7-2.2-1.6-3.3c-1.3-1.6-1.5-1.6-1-.2.6 2.1-1.6 2.4-3.2.5-1.3-1.5-3.4-10-3.4-13.7 0-1.4-.3-2.7-.7-3-.3-.3-1.2-1.5-1.9-2.8-1.7-3 .2-2.8 2.2.3m-534.8 11.1c-.5 1.7-.3 2.3.4 1.9.6-.4.5.8-.4 2.8-.8 2-1.1 3.8-.8 4.2.4.4.1.5-.7.3-1.7-.4-2.8 6.7-1.2 8.5.5.7 1.4 3.1 1.9 5.4.7 3.2.6 4.3-.3 4.7-2.1.8-4.5-2.7-3.8-5.3.4-1.5.2-2.2-.4-1.8s-.6-1.3 0-4.6c1.1-6.5 4.7-18.7 5.4-18.7.3 0 .2 1.2-.1 2.6m6.4 12.4c0 .5-.5 1-1.1 1-.5 0-.7-.5-.4-1 .3-.6.8-1 1.1-1 .2 0 .4.4.4 1m545.4 9.7c1.8 5.4 2 7.7.6 6.8-.6-.4-.8-1.1-.5-1.6.4-.5.2-.9-.3-.9s-1.3-2-1.9-4.5c-1.3-5.9.1-5.8 2.1.2m-3.5 8.4c-1.6 1-2.3.4-1.4-1 .3-.6 1.1-.8 1.7-.5q.9.6-.3 1.5m6.1 5.9c0 .5-.4 1-1 1-.5 0-1-.5-1-1 0-.6.5-1 1-1 .6 0 1 .4 1 1m-561.9 41.7c-.9 1.6-1 1.4-1.1-1.2 0-2.1.3-2.6 1.1-1.8s.8 1.6 0 3m564.1 22c.1 3.3-.1 6.5-.6 7-.2.2-1.5-.1-2.9-.8-2.6-1.2-2.7-3.6 0-5.2.7-.4 1.3-1.5 1.3-2.2 0-2.7 2-1.5 2.2 1.2m4.5 26.5c-.3.8-.6.5-.6-.6-.1-1.1.2-1.7.5-1.3.3.3.4 1.2.1 1.9M781 1258.1c0 .3 1.8 1.4 4 2.4 4 1.8 4.5 3.5.9 3.5-1 0-1.9.5-1.9 1.1 0 .7-1.1.9-3 .5-1.6-.3-3-.2-3 .2 0 1-5.4.9-6.1-.1-1.2-1.8 1.3-8.9 3.5-9.6 1.9-.8 5.6.6 5.6 2m544.7 19.1c-.3.8-.6.5-.6-.6-.1-1.1.2-1.7.5-1.3.3.3.4 1.2.1 1.9m1.3 13.8c1.3.8 1.3 1.1 0 2.4-1.8 1.9-4.3.6-3.4-1.7.7-1.9 1.3-2.1 3.4-.7m-530 24.6c0 .2-.9.4-2 .4s-2-.4-2-.9.9-.7 2-.4 2 .7 2 .9m490 30.4c0 .5-.4 1-1 1-.5 0-1-.5-1-1 0-.6.5-1 1-1 .6 0 1 .4 1 1m5.7-.4c-.3.3-1.2.4-1.9.1-.8-.3-.5-.6.6-.6 1.1-.1 1.7.2 1.3.5M1198 1543c0 .5-.4 1-1 1-.5 0-1-.5-1-1 0-.6.5-1 1-1 .6 0 1 .4 1 1"/><path d="M1342.1 1129.6c0 1.1.3 1.4.6.6.3-.7.2-1.6-.1-1.9-.3-.4-.6.2-.5 1.3M784 1293.1c0 .5-1 .9-2.2.9-3.5 0-1.2 1.2 2.7 1.5 4.4.2 5.2-.6 1.9-2.2-1.3-.6-2.4-.7-2.4-.2m420.5 244c-1.1 1.7.1 2.1 1.5.4.8-.9.8-1.5.2-1.5s-1.4.5-1.7 1.1m-3.5 2.9c0 .5.5 1 1 1 .6 0 1-.5 1-1 0-.6-.4-1-1-1-.5 0-1 .4-1 1m-2 11c0 .5.5 1 1.1 1 .5 0 .7-.5.4-1-.3-.6-.8-1-1.1-1-.2 0-.4.4-.4 1"/></g></svg>